<?xml version="1.0" standalone="no"?>
<!DOCTYPE svg PUBLIC "-//W3C//DTD SVG 20010904//EN"
 "http://www.w3.org/TR/2001/REC-SVG-20010904/DTD/svg10.dtd">
<svg version="1.0" xmlns="http://www.w3.org/2000/svg"
 width="321.000000pt" height="239.000000pt" viewBox="0 0 321.000000 239.000000"
 preserveAspectRatio="xMidYMid meet">
<metadata>
Created by potrace 1.16, written by Peter Selinger 2001-2019
</metadata>
<g transform="translate(0.000000,239.000000) scale(0.100000,-0.100000)"
fill="black" stroke="black" stroke-width="30">
<path d="M1315 2363 c-427 -54 -790 -233 -891 -439 -22 -45 -26 -64 -22 -114
9 -120 105 -213 410 -394 207 -122 290 -176 295 -191 1 -5 -20 -21 -48 -35
-113 -55 -175 -139 -147 -196 24 -50 61 -68 135 -68 115 0 207 40 226 98 12
35 -3 88 -38 140 -14 20 -25 41 -25 46 0 8 56 23 140 36 l40 7 -6 -31 c-10
-50 3 -102 26 -102 16 0 20 10 26 61 7 59 7 60 21 38 42 -68 115 -82 178 -35
l37 29 -7 -44 c-13 -88 -74 -386 -83 -410 -10 -24 -14 -25 -248 -48 -439 -42
-518 -62 -564 -136 -19 -30 -22 -46 -17 -93 9 -108 81 -255 176 -364 120 -135
292 -138 417 -6 55 58 75 89 127 194 48 97 94 218 127 330 l20 71 61 7 c34 3
88 6 119 6 l58 0 7 -37 c11 -61 74 -260 96 -309 14 -29 28 -44 40 -44 10 0 19
2 19 4 0 3 -22 72 -49 153 -27 82 -52 170 -56 196 l-7 47 46 0 c63 0 58 18 -6
22 l-52 3 -13 60 c-18 78 -53 284 -53 311 0 16 12 27 48 42 26 11 62 30 80 42
30 21 32 21 32 3 0 -10 9 -33 20 -50 33 -55 87 -45 168 30 25 25 32 27 32 14
0 -10 11 -29 25 -42 45 -46 153 -27 233 39 l32 28 0 -45 c0 -46 17 -71 41 -62
8 3 27 42 43 86 28 79 58 130 71 118 3 -4 9 -29 14 -57 10 -63 25 -82 63 -82
22 0 42 11 71 40 48 49 42 65 -8 21 -20 -17 -39 -31 -43 -31 -18 0 -32 27 -32
61 0 21 -4 49 -10 63 -19 52 -91 26 -137 -49 -11 -18 -12 -16 -12 17 -1 20 10
106 23 190 53 327 58 451 20 489 -18 17 -21 18 -41 4 -13 -9 -27 -34 -33 -56
-16 -58 -30 -292 -30 -504 l0 -180 -34 -23 c-53 -36 -156 -65 -183 -53 -34 16
-32 83 3 117 24 25 35 26 77 9 13 -5 17 -2 17 13 0 16 -8 23 -34 27 -45 9 -89
-15 -120 -64 -30 -46 -102 -110 -135 -118 -42 -10 -51 17 -51 152 0 81 4 125
12 133 8 8 47 12 110 12 59 0 98 4 98 10 0 6 -42 10 -105 10 -115 0 -109 -4
-106 65 3 78 -39 67 -49 -13 l-5 -47 -42 -3 c-53 -4 -56 -20 -5 -24 l37 -3 0
-99 0 -100 -77 -40 c-43 -22 -79 -38 -82 -35 -2 2 -7 26 -10 52 -7 46 -6 48
23 58 16 6 32 18 36 27 7 20 -19 42 -51 42 -19 0 -22 7 -27 73 -4 39 -10 148
-13 240 -7 163 -8 168 -28 165 -20 -3 -21 -11 -28 -128 -4 -69 -17 -199 -29
-290 -23 -184 -31 -201 -101 -222 -34 -10 -42 -9 -65 8 -38 29 -52 55 -33 62
32 11 81 71 78 94 -5 37 -66 37 -109 1 -18 -15 -30 -21 -27 -13 12 32 68 270
84 357 24 133 8 211 -42 201 -53 -10 -81 -145 -92 -443 l-7 -179 -71 -12 c-39
-7 -86 -17 -106 -22 -32 -9 -41 -7 -79 20 -24 16 -120 74 -214 130 -305 182
-395 251 -439 340 -32 64 -32 99 -2 163 82 175 326 317 691 401 149 34 359 39
434 11 98 -38 141 -92 141 -177 0 -58 -20 -103 -80 -178 -39 -51 -40 -52 -16
-52 43 0 137 127 150 202 15 85 -42 177 -132 216 -81 35 -230 50 -347 35z
m-147 -1196 c26 -27 52 -88 52 -120 0 -79 -212 -127 -250 -57 -29 54 4 105
104 165 33 19 63 35 66 35 4 0 16 -10 28 -23z m603 -25 c4 -4 19 -81 34 -172
15 -91 30 -177 32 -191 4 -23 1 -27 -27 -33 -18 -3 -66 -6 -106 -6 l-74 0 6
28 c3 15 10 43 15 62 17 69 59 290 59 311 0 18 4 20 28 14 15 -3 30 -9 33 -13z
m-211 -450 c0 -40 -83 -272 -134 -377 -37 -75 -72 -130 -112 -174 -122 -134
-226 -134 -346 -1 -94 103 -168 263 -168 364 0 41 5 53 33 81 43 43 110 58
413 89 226 24 289 31 307 35 4 0 7 -7 7 -17z"/>
<path d="M2245 1038 c-3 -7 -9 -33 -13 -58 -7 -44 -8 -45 -50 -48 -53 -4 -56
-22 -3 -22 23 0 41 -5 44 -13 3 -8 3 -61 0 -120 -5 -98 -8 -108 -35 -141 -44
-54 -62 -48 -56 17 7 68 3 77 -37 77 -33 0 -34 1 -28 36 6 33 4 36 -18 32 -20
-2 -24 -9 -27 -45 l-3 -43 37 0 37 0 -7 -59 c-5 -47 -4 -62 9 -75 9 -9 21 -16
26 -16 23 0 68 32 88 62 12 19 21 26 21 17 0 -23 43 -59 71 -59 36 0 125 67
150 113 15 26 5 21 -43 -23 -54 -49 -94 -67 -117 -53 -13 9 -16 31 -16 134 0
68 3 132 7 142 6 15 22 17 107 17 56 0 103 4 106 10 4 6 -33 10 -104 10 l-110
0 -3 57 c-3 54 -21 82 -33 51z"/>
</g>
</svg>
